<mxfile host="app.diagrams.net" modified="2020-11-13T06:57:04.421Z" agent="5.0 (Windows NT 10.0; Win64; x64) AppleWebKit/537.36 (KHTML, like Gecko) Chrome/86.0.4240.183 Safari/537.36" etag="56M4qtD2Yc1hpA6vdjGV" version="13.9.2" type="github">
  <diagram id="C5RBs43oDa-KdzZeNtuy" name="Page-1">
    <mxGraphModel dx="1302" dy="581" grid="1" gridSize="10" guides="1" tooltips="1" connect="1" arrows="1" fold="1" page="1" pageScale="1" pageWidth="827" pageHeight="1169" math="0" shadow="0">
      <root>
        <mxCell id="WIyWlLk6GJQsqaUBKTNV-0" />
        <mxCell id="WIyWlLk6GJQsqaUBKTNV-1" parent="WIyWlLk6GJQsqaUBKTNV-0" />
        <mxCell id="6izXjzvUQ8AM0PBc-4YE-10" value="" style="edgeStyle=orthogonalEdgeStyle;rounded=0;orthogonalLoop=1;jettySize=auto;html=1;" edge="1" parent="WIyWlLk6GJQsqaUBKTNV-1" source="WIyWlLk6GJQsqaUBKTNV-3" target="6izXjzvUQ8AM0PBc-4YE-0">
          <mxGeometry relative="1" as="geometry" />
        </mxCell>
        <mxCell id="WIyWlLk6GJQsqaUBKTNV-3" value="圈定缓存文件/文件夹" style="rounded=1;whiteSpace=wrap;html=1;fontSize=12;glass=0;strokeWidth=1;shadow=0;" parent="WIyWlLk6GJQsqaUBKTNV-1" vertex="1">
          <mxGeometry x="50" y="120" width="90" height="40" as="geometry" />
        </mxCell>
        <mxCell id="6izXjzvUQ8AM0PBc-4YE-3" value="" style="edgeStyle=orthogonalEdgeStyle;rounded=0;orthogonalLoop=1;jettySize=auto;html=1;" edge="1" parent="WIyWlLk6GJQsqaUBKTNV-1" source="6izXjzvUQ8AM0PBc-4YE-0" target="6izXjzvUQ8AM0PBc-4YE-1">
          <mxGeometry relative="1" as="geometry" />
        </mxCell>
        <mxCell id="6izXjzvUQ8AM0PBc-4YE-0" value="备份手机2相应文件" style="rounded=1;whiteSpace=wrap;html=1;fontSize=12;glass=0;strokeWidth=1;shadow=0;" vertex="1" parent="WIyWlLk6GJQsqaUBKTNV-1">
          <mxGeometry x="175" y="120" width="114" height="40" as="geometry" />
        </mxCell>
        <mxCell id="6izXjzvUQ8AM0PBc-4YE-12" value="" style="edgeStyle=orthogonalEdgeStyle;rounded=0;orthogonalLoop=1;jettySize=auto;html=1;" edge="1" parent="WIyWlLk6GJQsqaUBKTNV-1" source="6izXjzvUQ8AM0PBc-4YE-1" target="6izXjzvUQ8AM0PBc-4YE-2">
          <mxGeometry relative="1" as="geometry" />
        </mxCell>
        <mxCell id="6izXjzvUQ8AM0PBc-4YE-1" value="手机1文件拷贝至手机2" style="rounded=1;whiteSpace=wrap;html=1;fontSize=12;glass=0;strokeWidth=1;shadow=0;" vertex="1" parent="WIyWlLk6GJQsqaUBKTNV-1">
          <mxGeometry x="324" y="120" width="96" height="40" as="geometry" />
        </mxCell>
        <mxCell id="6izXjzvUQ8AM0PBc-4YE-18" value="" style="edgeStyle=orthogonalEdgeStyle;rounded=0;orthogonalLoop=1;jettySize=auto;html=1;" edge="1" parent="WIyWlLk6GJQsqaUBKTNV-1" source="6izXjzvUQ8AM0PBc-4YE-2" target="6izXjzvUQ8AM0PBc-4YE-13">
          <mxGeometry relative="1" as="geometry" />
        </mxCell>
        <mxCell id="6izXjzvUQ8AM0PBc-4YE-2" value="更新文件的用户和用户组" style="rounded=1;whiteSpace=wrap;html=1;fontSize=12;glass=0;strokeWidth=1;shadow=0;" vertex="1" parent="WIyWlLk6GJQsqaUBKTNV-1">
          <mxGeometry x="445" y="120" width="90" height="40" as="geometry" />
        </mxCell>
        <mxCell id="6izXjzvUQ8AM0PBc-4YE-13" value="手机2登录了手机1的账号么？" style="rhombus;whiteSpace=wrap;html=1;shadow=0;fontFamily=Helvetica;fontSize=12;align=center;strokeWidth=1;spacing=6;spacingTop=-4;" vertex="1" parent="WIyWlLk6GJQsqaUBKTNV-1">
          <mxGeometry x="560" y="100" width="100" height="80" as="geometry" />
        </mxCell>
        <mxCell id="6izXjzvUQ8AM0PBc-4YE-14" value="Yes" style="rounded=0;html=1;jettySize=auto;orthogonalLoop=1;fontSize=11;endArrow=block;endFill=0;endSize=8;strokeWidth=1;shadow=0;labelBackgroundColor=none;edgeStyle=orthogonalEdgeStyle;exitX=0.5;exitY=0;exitDx=0;exitDy=0;entryX=0;entryY=0.25;entryDx=0;entryDy=0;" edge="1" parent="WIyWlLk6GJQsqaUBKTNV-1" source="6izXjzvUQ8AM0PBc-4YE-13" target="6izXjzvUQ8AM0PBc-4YE-19">
          <mxGeometry y="20" relative="1" as="geometry">
            <mxPoint as="offset" />
            <mxPoint x="220" y="327" as="sourcePoint" />
            <mxPoint x="220" y="367" as="targetPoint" />
          </mxGeometry>
        </mxCell>
        <mxCell id="6izXjzvUQ8AM0PBc-4YE-19" value="找到" style="rounded=1;whiteSpace=wrap;html=1;fontSize=12;glass=0;strokeWidth=1;shadow=0;" vertex="1" parent="WIyWlLk6GJQsqaUBKTNV-1">
          <mxGeometry x="680" y="70" width="120" height="40" as="geometry" />
        </mxCell>
        <mxCell id="6izXjzvUQ8AM0PBc-4YE-20" value="未找到" style="rounded=1;whiteSpace=wrap;html=1;fontSize=12;glass=0;strokeWidth=1;shadow=0;" vertex="1" parent="WIyWlLk6GJQsqaUBKTNV-1">
          <mxGeometry x="680" y="180" width="120" height="40" as="geometry" />
        </mxCell>
        <mxCell id="6izXjzvUQ8AM0PBc-4YE-21" value="No" style="rounded=0;html=1;jettySize=auto;orthogonalLoop=1;fontSize=11;endArrow=block;endFill=0;endSize=8;strokeWidth=1;shadow=0;labelBackgroundColor=none;edgeStyle=orthogonalEdgeStyle;exitX=0.5;exitY=1;exitDx=0;exitDy=0;entryX=0;entryY=0.5;entryDx=0;entryDy=0;" edge="1" parent="WIyWlLk6GJQsqaUBKTNV-1" source="6izXjzvUQ8AM0PBc-4YE-13" target="6izXjzvUQ8AM0PBc-4YE-20">
          <mxGeometry y="20" relative="1" as="geometry">
            <mxPoint as="offset" />
            <mxPoint x="620" y="110" as="sourcePoint" />
            <mxPoint x="690" y="90" as="targetPoint" />
            <Array as="points">
              <mxPoint x="610" y="200" />
              <mxPoint x="680" y="200" />
            </Array>
          </mxGeometry>
        </mxCell>
      </root>
    </mxGraphModel>
  </diagram>
</mxfile>
